<svg width="53" height="48" viewBox="0 0 53 48" fill="none" xmlns="http://www.w3.org/2000/svg">
<rect x="0.5" width="52.5" height="48" rx="24" fill="#0F1116"/>
<path d="M37.3672 20.6641L27.5586 17.6406C27.0312 17.4648 26.4336 17.4648 25.9062 17.6406L16.0977 20.6641C15.2891 20.9102 15.2891 22 16.0977 22.2461L17.8203 22.7734C17.4336 23.2305 17.2227 23.8281 17.1875 24.4258C16.8359 24.6367 16.625 24.9883 16.625 25.375C16.625 25.7617 16.8008 26.0781 17.082 26.2891L16.2031 30.332C16.1328 30.6836 16.3789 31 16.7305 31H18.7344C19.0859 31 19.332 30.6836 19.2617 30.332L18.3828 26.2891C18.6641 26.0781 18.875 25.7617 18.875 25.375C18.875 24.9883 18.6289 24.6367 18.3125 24.4609C18.3477 23.9336 18.5938 23.4414 19.0508 23.1602L25.9062 25.2695C26.2227 25.375 26.8555 25.4805 27.5586 25.2695L37.3672 22.2461C38.1758 22 38.1758 20.9102 37.3672 20.6641ZM27.875 26.3594C26.8906 26.6406 26.0117 26.5 25.5898 26.3594L20.4922 24.7773L20 28.75C20 30.0156 22.9883 31 26.75 31C30.4766 31 33.5 30.0156 33.5 28.75L32.9727 24.7773L27.875 26.3594Z" fill="#00E7F9"/>
</svg>
